<svg width="32" height="32" viewBox="0 0 32 32" fill="none" xmlns="http://www.w3.org/2000/svg">
<path fill-rule="evenodd" clip-rule="evenodd" d="M28.42 14.77L23.66 14.08L21.45 9.66001C20.9412 8.64085 19.8991 7.99777 18.76 8.00001H9.4C8.13174 8.00357 7.00275 8.80428 6.58 10L5.1 14H4C2.34315 14 1 15.3432 1 17V20C1 21.6569 2.34315 23 4 23H4.14C4.6134 24.742 6.19486 25.951 8 25.951C9.80514 25.951 11.3866 24.742 11.86 23H20.14C20.6134 24.742 22.1949 25.951 24 25.951C25.8051 25.951 27.3866 24.742 27.86 23H28C29.6569 23 31 21.6569 31 20V17.73C30.9948 16.2394 29.8959 14.9787 28.42 14.77ZM8.42 10.66C8.56788 10.2499 8.96439 9.98288 9.4 10H18.76C19.1402 9.99736 19.4889 10.2105 19.66 10.55L21.38 14H7.23L8.42 10.66ZM8 24C6.89543 24 6 23.1046 6 22C6 20.8954 6.89543 20 8 20C9.10457 20 10 20.8954 10 22C10 23.1046 9.10457 24 8 24ZM24 24C22.8954 24 22 23.1046 22 22C22 20.8954 22.8954 20 24 20C25.1046 20 26 20.8954 26 22C26 23.1046 25.1046 24 24 24ZM29 20C29 20.5523 28.5523 21 28 21H27.86C27.3866 19.258 25.8051 18.049 24 18.049C22.1949 18.049 20.6134 19.258 20.14 21H11.86C11.3866 19.258 9.80514 18.049 8 18.049C6.19486 18.049 4.6134 19.258 4.14 21H4C3.44772 21 3 20.5523 3 20V17C3 16.4477 3.44772 16 4 16H22.93L28.14 16.74C28.637 16.8103 29.0049 17.2381 29 17.74V20Z" fill="#009FDB"/>
</svg>
