<svg width="32" height="32" viewBox="0 0 32 32" fill="none" xmlns="http://www.w3.org/2000/svg">
<path fill-rule="evenodd" clip-rule="evenodd" d="M28 16H12V11H10V16H4C2.34315 16 1 17.3431 1 19V27C1 28.6568 2.34315 30 4 30H28C29.6569 30 31 28.6568 31 27V19C31 17.3431 29.6569 16 28 16ZM29 27C29 27.5523 28.5523 28 28 28H4C3.44772 28 3 27.5523 3 27V19C3 18.4477 3.44772 18 4 18H28C28.5523 18 29 18.4477 29 19V27ZM6 22H8V24H6V22ZM10 22H12V24H10V22ZM14 22H16V24H14V22ZM4.64 7.63999L3.22 6.21999C5.28305 4.15597 8.08172 2.99634 11 2.99634C13.9183 2.99634 16.717 4.15597 18.78 6.21999L17.36 7.63999C13.8462 4.13055 8.15381 4.13055 4.64 7.63999ZM11 6.99999C12.8778 6.97658 14.6837 7.72063 16 9.05999L14.58 10.46C12.6287 8.51473 9.47135 8.51473 7.52 10.46L6.05 9.05999C7.3542 7.73317 9.13955 6.99018 11 6.99999Z" fill="#009FDB"/>
</svg>
